<svg xmlns="http://www.w3.org/2000/svg" viewBox="0 0 32 32" width="32" height="32" fill="none" stroke="#000000" stroke-width="1.5" stroke-linecap="round" stroke-linejoin="round">
  <!-- Head -->
  <circle cx="13" cy="8" r="5"/>

  <!-- Body / shoulders -->
  <path d="M2,32 Q2,22 13,20 Q20,20 23,23"/>

  <!-- Gear -->
  <!-- Gear outer teeth -->
  <path d="
    M26,18.5 L27.2,17.3 L28.8,18.9 L27.6,20.1
    Q28.2,21 28.4,22 L30,22 L30,24 L28.4,24
    Q28.2,25 27.6,25.9 L28.8,27.1 L27.2,28.7 L26,27.5
    Q25.1,28.1 24,28.3 L24,30 L22,30 L22,28.3
    Q21,28.1 20,27.5 L18.8,28.7 L17.2,27.1 L18.4,25.9
    Q17.8,25 17.6,24 L16,24 L16,22 L17.6,22
    Q17.8,21 18.4,20.1 L17.2,18.9 L18.8,17.3 L20,18.5
    Q21,17.9 22,17.7 L22,16 L24,16 L24,17.7
    Q25.1,17.9 26,18.5 Z
  "/>
  <!-- Gear inner circle -->
  <circle cx="23" cy="23" r="2.5"/>
</svg>
