<svg xmlns="http://www.w3.org/2000/svg" viewBox="0 0 32 32" width="32" height="32" fill="none" stroke="#000000" stroke-width="1.5" stroke-linecap="round" stroke-linejoin="round">

  <!-- Left person (background) -->
  <circle cx="6" cy="13" r="3"/>
  <path d="M1,32 Q1,24 6,23 Q11,24 11,32"/>

  <!-- Right person (background) -->
  <circle cx="26" cy="13" r="3"/>
  <path d="M21,32 Q21,24 26,23 Q31,24 31,32"/>

  <!-- Center leader head -->
  <circle cx="16" cy="10" r="3.5"/>

  <!-- Rays around leader head -->
  <line x1="16" y1="3" x2="16" y2="1"/>
  <line x1="20.5" y1="4.5" x2="21.8" y2="3.2"/>
  <line x1="22.5" y1="9" x2="24.5" y2="9"/>
  <line x1="11.5" y1="4.5" x2="10.2" y2="3.2"/>
  <line x1="9.5" y1="9" x2="7.5" y2="9"/>

  <!-- Leader tie -->
  <path d="M15,13 L14,16 L16,18 L18,16 L17,13 Z"/>

  <!-- Leader body / shoulders -->
  <path d="M9,32 Q9,19 16,18 Q23,19 23,32"/>


</svg>
